HIERARCHY
ROOT Hips
{
   OFFSET 0.00000 0.00000 0.00000
   CHANNELS 6 Xposition Yposition Zposition Zrotation Xrotation Yrotation
   JOINT RightUpLeg
   {
      OFFSET -8.945800 -8.667070 0.101652
      CHANNELS 3 Zrotation Xrotation Yrotation
      JOINT RightLeg
      {
         OFFSET 0.000000 -44.422697 1.372700
         CHANNELS 3 Zrotation Xrotation Yrotation
         JOINT RightFoot
         {
            OFFSET 0.253549 -42.092399 -1.460590
            CHANNELS 3 Zrotation Xrotation Yrotation
            JOINT RightToes
            {
               OFFSET 0.040000 -4.415090 8.499099
               CHANNELS 3 Zrotation Xrotation Yrotation
               End Site
               {
                  OFFSET -0.080000 -0.137448 9.779790
               }
            }
         }
      }
   }
   JOINT Spine
   {
      OFFSET 0.000000 11.890501 0.000000
      CHANNELS 3 Zrotation Xrotation Yrotation
      JOINT Spine1
      {
         OFFSET 0.000000 25.657401 0.127663
         CHANNELS 3 Zrotation Xrotation Yrotation
         JOINT HEad
         {
            OFFSET 0.000000 8.734161 0.011341
            CHANNELS 3 Zrotation Xrotation Yrotation
            End Site
            {
               OFFSET -0.290000 12.774200 2.513950
            }
         }
         JOINT LeftShoulder1
         {
            OFFSET 8.990000 -0.362252 -0.220000
            CHANNELS 3 Zrotation Xrotation Yrotation
            JOINT LeftArm
            {
               OFFSET 10.282700 -0.003380 0.322123
               CHANNELS 3 Zrotation Xrotation Yrotation
               JOINT LeftForeArm
               {
                  OFFSET 32.766900 0.099144 -1.424340
                  CHANNELS 3 Zrotation Xrotation Yrotation
                  JOINT LeftHand
                  {
                     OFFSET 27.564301 0.085362 1.022160
                     CHANNELS 3 Zrotation Xrotation Yrotation
                     End Site
                     {
                        OFFSET 16.744301 -0.600000 1.502910
                     }
                  }
               }
            }
         }
         JOINT RightShoulder
         {
            OFFSET -8.990000 -0.362252 -0.220000
            CHANNELS 3 Zrotation Xrotation Yrotation
            JOINT RightArm
            {
               OFFSET -10.282700 -0.003380 0.322123
               CHANNELS 3 Zrotation Xrotation Yrotation
               JOINT RightForeArm
               {
                  OFFSET -32.897098 0.099144 -1.424340
                  CHANNELS 3 Zrotation Xrotation Yrotation
                  JOINT RightHand
                  {
                     OFFSET -27.492101 0.085362 1.022160
                     CHANNELS 3 Zrotation Xrotation Yrotation
                     End Site
                     {
                        OFFSET -16.631201 -0.600000 1.502910
                     }
                  }
               }
            }
         }
      }
   }
   JOINT LeftUpLeg
   {
      OFFSET 8.945800 -8.667070 0.101652
      CHANNELS 3 Zrotation Xrotation Yrotation
      JOINT LeftLeg
      {
         OFFSET 0.000000 -44.422697 1.372700
         CHANNELS 3 Zrotation Xrotation Yrotation
         JOINT LeftFoot
         {
            OFFSET -0.253549 -42.092399 -1.460590
            CHANNELS 3 Zrotation Xrotation Yrotation
            JOINT LeftToes
            {
               OFFSET -0.040000 -4.415090 8.499099
               CHANNELS 3 Zrotation Xrotation Yrotation
               End Site
               {
                  OFFSET 0.080000 -0.047448 9.779790
               }
            }
         }
      }
   }
}
MOTION
Frames: 10
Frame Time: 0.016667
-403.592561 98.597125 -46.063523 19.351727 -18.414280 39.137582 -4.059418 -4.017063 -49.453865 -22.674249 22.574209 7.190195 -26.571507 5.152884 54.480290 11.477329 -7.873420 -20.725237 -12.989003 30.380121 150.462442 10.738604 -12.672993 -139.237928 -3.319055 18.621179 -5.695692 -6.795348 66.069438 0.313945 -123.364281 -13.789297 -168.960848 -40.288018 2.387751 -37.277181 -79.804784 -46.603579 -55.721284 -24.247764 64.881224 78.988754 109.524248 82.317085 185.668529 9.192336 163.863669 63.425997 -3.997490 -21.779651 39.675158 13.628749 -5.961617 -118.128736 -12.097047 -24.522811 140.434031 33.153475 42.780214 -1.200555 -43.498528 -18.389164 15.021884
-403.663629 98.529576 -45.946373 19.631002 -18.389552 40.927252 -3.694076 -4.261968 -54.150959 -25.701013 21.038111 10.315522 -26.393705 5.176663 55.019704 11.737193 -7.721634 -20.399142 -11.119220 28.890628 151.066668 11.357909 -12.657421 -139.687545 -5.858698 20.701931 -6.022782 -3.755079 57.595734 0.368197 -114.397117 -27.623457 -155.230570 -35.621544 -3.943294 -44.180225 -79.076877 -46.713156 -58.886701 -21.505718 67.545558 77.306178 107.281781 88.265626 188.556688 10.546676 172.984226 66.378312 -6.537405 -24.305894 40.714440 13.162684 -5.913182 -120.150951 -11.779009 -24.083869 139.523635 29.666319 40.910576 0.619439 -43.539317 -18.206831 14.832818
-403.606180 98.515357 -45.823674 18.317640 -17.775019 43.114306 -3.004195 -5.126121 -58.135517 -26.754341 20.281569 11.101117 -26.515416 5.467816 55.028929 12.061020 -7.564411 -20.671383 -9.559969 28.173379 150.356683 11.319130 -13.659762 -141.313527 -8.149906 22.061902 -6.726089 -1.108281 48.609022 -0.453666 -99.866279 -40.002922 -138.570837 -29.969374 -12.172707 -50.152276 -76.276663 -48.030645 -61.926894 -18.276799 69.951553 75.363522 103.543762 93.446571 190.408762 10.865176 182.076396 68.828711 -9.641204 -25.937508 40.915982 13.054492 -7.064798 -121.836505 -10.954439 -22.892279 139.068498 26.739386 39.361905 2.782767 -43.564698 -18.037257 14.552591
-403.373293 98.546256 -45.686511 17.263359 -17.378055 44.221110 -3.194491 -5.809013 -60.129195 -26.570995 20.405323 10.677806 -25.822486 5.705930 55.507619 12.291248 -7.584535 -20.685412 -8.505289 28.273064 150.423332 10.966186 -13.994094 -143.349060 -10.309059 22.260792 -7.362849 1.032744 42.102143 -2.452861 -80.686520 -50.530105 -119.730197 -24.576378 -20.265166 -54.717451 -73.876958 -48.974212 -65.514164 -14.716322 70.881791 72.271242 98.957584 98.718363 193.371302 11.973362 191.222716 72.759096 -13.508677 -29.023793 40.374778 13.306348 -8.110287 -122.996339 -10.691650 -22.681791 138.824414 23.878107 38.326671 4.660909 -43.540137 -17.841672 13.978679
-403.041300 98.620728 -45.565399 16.616085 -16.853640 45.407798 -3.711073 -6.140166 -60.221061 -25.868747 21.089333 8.864634 -25.343111 5.804200 55.968086 12.410409 -7.894550 -20.663510 -7.635241 29.076610 150.904287 10.516982 -13.956229 -146.085862 -12.468785 21.682278 -7.919467 2.416801 39.488110 -5.143345 -58.478557 -58.400966 -98.725596 -19.655715 -27.753830 -57.231169 -71.737982 -50.090814 -68.663653 -10.389265 69.417760 67.974821 94.186082 104.543101 198.658948 12.932326 199.429257 76.517837 -17.165008 -31.097441 39.616624 13.520455 -9.069604 -124.010786 -10.638164 -23.100130 138.410177 21.034515 37.211352 6.118604 -43.397547 -17.744015 12.976104
-402.713312 98.720168 -45.506286 16.733590 -16.737823 46.969374 -4.290343 -5.640664 -58.810538 -24.764654 22.189485 5.760620 -25.143769 6.027217 56.306389 12.473647 -8.335129 -20.693037 -7.985519 29.714670 151.133549 10.180551 -12.929981 -149.977512 -14.773585 20.859545 -8.365072 3.152546 41.247345 -6.918861 -35.478748 -64.383747 -75.787349 -15.390240 -33.956552 -57.699034 -70.029151 -51.252418 -71.114154 -5.834449 66.458895 61.712692 89.211853 110.430464 205.618597 15.584933 207.176932 83.034507 -20.980224 -33.792252 39.877592 13.575024 -9.474036 -124.873371 -10.912496 -24.026171 138.008589 18.273941 36.012125 7.385100 -43.163797 -17.770160 11.849536
-402.367128 98.805006 -45.506310 16.895784 -16.548966 47.584347 -4.846642 -5.506604 -57.096512 -24.024427 23.283586 2.990486 -24.842979 6.333414 56.776337 12.484052 -8.883714 -20.670647 -7.301231 30.396340 151.497953 10.520052 -12.794404 -152.946363 -17.108905 19.922542 -8.722564 4.051211 45.293652 -10.336343 -12.197228 -67.824086 -52.390829 -11.398659 -39.327604 -56.336865 -68.756393 -52.458663 -73.224641 -0.067623 62.930576 56.064996 85.315312 116.227635 212.703866 17.459343 214.323946 88.429517 -24.424647 -35.763096 38.455249 13.664684 -8.927220 -125.806306 -10.378252 -24.256800 137.683691 15.751494 34.905217 8.568686 -42.785528 -17.962504 10.539652
-401.977915 98.851107 -45.538592 17.379901 -16.759155 47.954543 -5.242448 -5.021807 -55.293380 -23.543046 24.321163 0.525065 -24.555394 6.778279 57.317472 12.497272 -9.363870 -20.629803 -5.975859 30.336128 152.173309 10.963834 -13.406343 -155.037672 -19.429072 18.967961 -8.996531 5.448984 50.823571 -14.530777 10.916939 -69.751620 -29.526850 -7.823710 -43.578598 -53.617477 -67.950219 -53.679601 -74.847241 6.105284 58.460286 50.743835 81.894235 121.872145 220.350509 21.067310 219.597590 92.699935 -27.693303 -37.845761 36.821751 13.817489 -8.127339 -126.229655 -10.068112 -24.410254 137.887818 13.307823 34.059367 9.970702 -42.528238 -17.775362 9.687430
-401.566004 98.884381 -45.586705 18.293507 -17.465388 48.115923 -5.526490 -4.012207 -53.677787 -23.183525 25.210669 -1.658382 -24.286078 7.451952 57.905169 12.537289 -9.684593 -20.577868 -5.894008 31.143450 152.952811 11.675484 -14.256304 -156.739864 -21.738639 17.898535 -9.185050 6.930858 57.750049 -18.780263 32.264861 -71.845312 -6.785773 -4.752353 -46.189236 -51.940191 -67.849146 -54.814081 -75.808338 12.786850 53.639692 45.955330 79.015590 127.272488 228.391608 25.818183 224.195509 99.682888 -31.077880 -39.947171 36.582766 14.171441 -6.737040 -126.381326 -9.818046 -24.709179 138.229273 10.877636 33.096949 11.338892 -42.334691 -17.227772 9.001041
-401.139330 98.927744 -45.655007 18.722754 -17.729841 48.045507 -5.730911 -3.499173 -52.430629 -22.846406 25.746010 -3.579999 -23.956916 8.011562 58.427351 12.551176 -10.034340 -20.538090 -5.849391 31.725955 153.892864 11.723423 -15.038861 -158.114740 -23.903091 16.528295 -9.322576 9.545957 64.379512 -22.916126 52.991213 -72.861057 14.123773 -1.809482 -48.120243 -49.550741 -68.134935 -55.890386 -76.785731 19.073597 47.263092 41.208539 76.417201 132.148642 236.838449 29.896175 228.105341 105.097541 -34.077371 -41.868506 34.651015 14.738213 -5.755015 -126.721401 -9.266127 -25.140545 138.163771 8.322915 31.619705 12.251017 -42.053215 -16.586285 8.071957
